# xmcd CD database file
#
# Track frame offsets:
#	150
#	12436
#	32736
#	44338
#	56364
#	74588
#	99004
#	117022
#	130495
#	137059
#
# Disc length: 1981 seconds
#
# Revision: 0
# Processed by: cddbd v1.5.2PL0 Copyright (c) Steve Scherf et al.
# Submitted via: CDex 1.77
#
DISCID=8507bb0a
DTITLE=Lightnin' Hopkins - The Collection
DYEAR=1900
DGENRE=Blues
TTITLE0=Lonesome Dog Blues
TTITLE1=Glory Be
TTITLE2=Sometimes She Will
TTITLE3=Have you Ever Loved A Woman
TTITLE4=Shake That Thing
TTITLE5=Walk A Long Time
TTITLE6=Bring Me My Shotgun
TTITLE7=Mojo Hand
TTITLE8=Just Pickin'
TTITLE9=Just Sittin' Down Thinkin'
EXTD=
EXTT0=
EXTT1=
EXTT2=
EXTT3=
EXTT4=
EXTT5=
EXTT6=
EXTT7=
EXTT8=
EXTT9=
PLAYORDER=
